# xmcd
#
# Track frame offsets:
# 150
# 16690
# 30948
# 42245
# 66155
# 77473
# 89198
# 108000
# 123593
# 143190
# 156150
# 167143
# 178810
# 207650
# 222988
# 234770
# 248820
# 259479
# 273263
# 298690
# 313045
# 328890
#
# Disc length: 4722 seconds
#
#
# Revision: 0
# Processed by: cddbd v1.5.2PL0 Copyright (c) Steve Scherf et al.
# Submitted via: FreeRIP 2.944 
#
DISCID=41127016
DTITLE=Brainbox - The very best album ever
DYEAR=2002
DGENRE=Blues
TTITLE0=Virgin
TTITLE1=Amsterdam, the first days
TTITLE2=Sinner's prayer
TTITLE3=Dark rose
TTITLE4=Cruel train
TTITLE5=Down man
TTITLE6=Woman's gone
TTITLE7=To you
TTITLE8=Summertime
TTITLE9=Doomsday train
TTITLE10=Between alpha and omega
TTITLE11=Baby what you want me to do
TTITLE12=Scarborough fair
TTITLE13=The flight
TTITLE14=So helpless
TTITLE15=The smile
TTITLE16=Season to believe
TTITLE17=Sea of delight
TTITLE18=Mobilea
TTITLE19=Good morning
TTITLE20=Dilemma
TTITLE21=A part of me is a part of you
EXTD=
EXTT0=
EXTT1=
EXTT2=
EXTT3=
EXTT4=
EXTT5=
EXTT6=
EXTT7=
EXTT8=
EXTT9=
EXTT10=
EXTT11=
EXTT12=
EXTT13=
EXTT14=
EXTT15=
EXTT16=
EXTT17=
EXTT18=
EXTT19=
EXTT20=
EXTT21=
PLAYORDER=
